<?xml version="1.0" encoding="utf-8"?>
<!-- Generator: Adobe Illustrator 24.0.0, SVG Export Plug-In . SVG Version: 6.00 Build 0)  -->
<svg version="1.1" id="Layer_1" xmlns="http://www.w3.org/2000/svg" xmlns:xlink="http://www.w3.org/1999/xlink" x="0px" y="0px"
	 viewBox="0 0 462 127" style="enable-background:new 0 0 462 127;" xml:space="preserve">
<style type="text/css">
	.st0{fill:#38AE76;}
	.st1{fill:#375FA8;}
	.st2{fill:#E5197F;}
	.st3{fill:#443A77;}
	.st4{fill:#E7335D;}
	.st5{fill:#00ACD2;}
	.st6{fill:#AB2043;}
	.st7{fill:#5B5A5E;}
	.st8{fill:#FABB1A;}
</style>
<g>
	<g>
		<g>
			<path class="st0" d="M100,84.6c-3.9,1.6-8.2,2.3-13,1.9c-1.4,0-2.6-0.5-3.7-1.5c-1-1-1.5-2.3-1.5-3.7c0-1.5,0.5-2.7,1.6-3.7
				c1.1-1,2.3-1.5,3.6-1.5c1.4,0,2.6,0.5,3.6,1.4c1,1,1.5,1.9,1.7,2.8c2.8-0.3,4.1-1.2,4.1-2.8c-0.1-3.3-3.8-5-11.1-5
				c-3.8,0-7,0.7-9.7,2.2c-3,1.8-4.6,4.4-4.6,7.7c-0.1,4.3,1.9,7.6,5.8,9.9c3.2,1.9,7,2.9,11.6,3c2.5,0.1,5.2-0.1,8.1-0.6
				c0-1.5,0.5-2.7,1.5-3.7c1-1,2.3-1.4,3.7-1.4c1.4,0,2.6,0.5,3.6,1.5c1,1,1.5,2.2,1.5,3.6c0,2.5-1.1,4.2-3.4,5
				c-3.1,1.4-9.3,2.1-18.5,2.1c-6.4,0-11.8-1.6-16.4-4.7c-5.1-3.5-7.7-8.2-7.7-14c0-5.9,3.1-10.1,9.2-12.6c-4.5-0.7-6.9-2.9-7.1-6.5
				c-0.5-6.6,3.8-9.8,12.9-9.8h15.1v-4.9H60.8c-1.5,0-2.3-1.1-2.3-3.2c0-1.7,0.8-2.6,2.3-2.6h51.4c1.6,0.1,2.4,1,2.4,2.7
				c0,1.9-0.8,3-2.4,3.1h-10.8v7.8c0,1.9-2,2.8-5.9,2.8H79.8c-4.4,0-6.5,1.3-6.5,3.9c0.1,1.2,0.8,2,2.3,2.4c1,0.2,2.1,0.4,3.2,0.6
				c3-0.4,6-0.7,9-0.7c12.4,0,18.6,3.7,18.6,11.1C106.4,80.4,104.3,82.8,100,84.6z"/>
			<path class="st0" d="M71.1,26.9c2.3-1,4.9-1.4,7.9-1.4c2.1,0,4.3,0.4,6.7,1.2c5,1.6,11.3,7.2,18.8,16.9H92.8
				c-4.6-5.1-7.2-8-7.8-8.5c-2.8-2.3-6.3-3.5-10.4-3.5c-1.3,0-2.4,0.3-3.5,1c-1.2-0.2-1.8-1.1-1.8-2.7
				C69.2,28.5,69.9,27.5,71.1,26.9z"/>
			<path class="st0" d="M110.7,49.4c-1.5,0-2.3-1-2.3-3.1c0-1.8,0.8-2.7,2.3-2.7h49.4c1.4,0,2.1,1,2.1,2.9s-0.7,2.9-2.1,2.9H110.7z
				 M137.2,88.5c-0.2,0.3-0.9,0.4-2,0.4c-4,0-7.2-1.5-9.6-4.4c-2.2-2.7-3.3-5.9-3.3-9.7c0-8.2,2.5-12.3,7.6-12.1
				c2.8,0.1,4.7,1.5,5.9,4.3c1,2.3,1.3,5,1,7.9c0.1,1.9,2,2.9,5.7,2.9c3.6,0,5.3-0.9,5.2-2.7c0-1.1,0.1-2.8,0.4-5
				c0.1-1.4,0.8-2.7,2.1-3.7c1.3-1.1,2.9-1.6,4.7-1.6c1.9,0,3.4,0.5,4.6,1.6c0.9,0.3,1.4-0.8,1.4-3.1c0-2.4-0.5-4.1-1.4-5
				c-1.2-1.2-3.1-1.9-5.6-1.9c-2.8-0.1-5.2,0.5-7.4,1.9c-2.4,1.5-3.8,3.5-4.1,6c-0.4-3-1.9-5.4-4.4-7.1c-2.5-1.7-5.5-2.6-8.8-2.5
				c-11.9,0.1-17.8,7-17.6,20.8c0.1,6.2,2.4,11.2,6.9,14.9c4.2,3.5,9.4,5.2,15.7,5.2c3.2,0,6.1-0.3,8.6-0.9c1.4-0.4,2.4-1,3.1-1.7
				c1-1,1.5-2.3,1.5-3.7c0-1.5-0.5-2.7-1.5-3.7c-1-1-2.2-1.5-3.6-1.5c-1.4,0-2.6,0.5-3.5,1.4C137.9,86.3,137.3,87.3,137.2,88.5
				L137.2,88.5z"/>
			<path class="st0" d="M170.8,57.2c0.3-0.8,0.7-1.4,1.4-2c1-1,2.2-1.4,3.6-1.4c1.5,0,2.7,0.5,3.7,1.5c1,1,1.5,2.2,1.5,3.6
				c0,2.4-1.1,4.1-3.4,5c-1.4,0.8-3,1.2-4.8,1.2c-3,0-5.7-1.1-8.1-3.2c-2.4-2.1-3.6-4.8-3.6-7.9c0-7.9,5.2-11.7,15.6-11.5
				c4.9,0.1,8.8,1.7,11.7,4.8c2.9,3.1,4.4,7.1,4.4,12.1c0,5-2.2,9.2-6.7,12.6c-4,3.2-8.3,4.7-13,4.7c-1.3,0-2.5-0.2-3.6-0.5
				c1.2,2.4,3.1,4,5.5,4.8c2.2,0.8,5.4,1.1,9.8,1c2.5-0.1,5.2-1,8.2-2.6c2.9-1.6,5-3.3,6.3-5.2V49.4h-5.6c-1.3,0-1.9-1.1-1.9-3.3
				c0-1.7,0.6-2.5,1.9-2.5h22.8c1.2,0,1.7,1,1.7,2.9s-0.6,2.9-1.7,2.9H209v36.9c0.1,2,1.3,4,3.6,6c2.3,2,4.3,3,6.2,3
				c0.6,0,1.1-0.1,1.4-0.4c0.6-0.1,1.2-0.2,1.7-0.2c1.6,0,2.4,0.6,2.4,1.8c0,0.8-0.4,1.5-1.3,2.1c-1,0.6-2.4,0.9-4,0.7
				c-2.4,0.1-6.8-2.6-13-8.1c-0.5-0.4-1.8-0.6-4-0.8c-1.7-0.2-2.6-0.7-2.9-1.6v-4.6c-4.2,3.3-9.4,5.4-15.3,6.1
				c-0.6,0.1-1.4,0.1-2.1,0.1c-4.7,0-8.9-1-12.7-3.1c-5.3-3-8.7-7.6-10.1-13.9c-0.1-0.6-0.2-1.2-0.2-1.7c0-3,1.5-4.5,4.5-4.5
				c0.5,0,1,0.1,1.4,0.2c1.5,1.9,3.9,2.8,7,2.5c3.6-0.3,6.3-1,8.1-2.2c2.8-1.9,4.2-5.1,4.2-9.7c0.1-2.4-0.6-4.6-2-6.3
				c-1.4-1.8-3.3-2.7-5.5-2.8c-2.1-0.1-3.6,0.2-4.7,0.9c-1.4,0.8-2,2.3-1.8,4.2C170.1,55.3,170.3,56.3,170.8,57.2z"/>
		</g>
		<g>
			<path class="st1" d="M285.7,79.4c-0.9,1.2-2.4,1.7-4.5,1.7c-1.9,0-3.4-0.7-4.4-2c-0.2,5-2.1,8.8-5.6,11.2
				c-3.1,2.1-7.1,3.2-12.1,3.2c-9.5,0-17.2-4.3-23.2-13c-0.4-1.2-0.6-2.2-0.6-3.2c0-3,1.4-4.5,4.2-4.5c1.7,0,3.3,0.8,4.7,2.3
				c0.6,0.6,0.9,1.4,0.9,2.1c0,0.7-0.2,1.4-0.6,2.1c3,3.7,6.2,5.7,9.6,6c0.8,0.1,1.6,0.1,2.4,0.1c6.9,0,10.3-2.6,10.3-7.7
				c0-2.6-1.1-4.8-3.3-6.6c-2.2-1.7-5-2.6-8.4-2.6c-0.6,0-1.3,0-1.9,0.1c-0.9,0-2.1,0.2-3.6,0.5c-1.7-0.5-2.6-1.9-2.6-4.1
				c0-2.3,0.8-3.3,2.3-3.3c0.8,0.3,1.6,0.5,2.6,0.5c3.1,0,5.9-0.5,8.4-1.4c3.4-1.4,5.1-3.3,4.9-6c-0.1-3.8-3.7-5.7-10.6-5.7
				c-1.4,0-3.4,0.4-6.3,1.3c-2.8,0.8-5,1.6-6.5,2.4c-1-0.5-1.5-1.7-1.5-3.6c0-1.5,0.5-2.6,1.5-3.3c3.3-2.1,7.8-3.2,13.2-3.4
				c5.7-0.1,10.4,0.6,14,2.3c4.8,2.2,7.1,5.8,7,10.7c-0.1,2.6-1.1,4.9-2.9,6.9c-1.8,2-3.9,3.1-6.3,3.3c4.1,0.1,7,2.3,8.8,6.7
				c1.5-1.6,3.2-2.4,5.1-2.4c2.2,0,4,0.8,5.3,2.4V49.4h-7.9c-1.5,0-2.2-1.1-2.2-3.4c0-1.6,0.7-2.4,2.2-2.4h24.6c1.9,0,2.8,1,2.8,2.9
				s-0.9,2.9-2.8,2.9h-7v37.5c0.1,2,1.2,4,3.3,5.9c2.2,1.9,4.1,2.9,5.9,2.9c0.6,0,1.1-0.1,1.7-0.3s1-0.3,1.5-0.3
				c1.7,0,2.5,0.6,2.5,1.8c0,0.8-0.5,1.6-1.4,2.2c-0.9,0.6-2.2,0.8-3.8,0.6c-2.4,0.1-6.8-2.6-13.1-8.1c-0.5-0.3-1.8-0.6-3.9-0.8
				c-1.7-0.2-2.6-0.7-2.9-1.6V89V79.4z"/>
			<path class="st1" d="M307.2,49.4h-4.9c-1.7,0-2.5-1-2.5-2.9c0-1.9,0.8-2.8,2.5-2.9h23c1.7,0,2.5,0.9,2.5,2.7
				c0,2.1-0.8,3.1-2.5,3.1h-7.9v37.5c0.1,2,1.2,3.9,3.3,5.8c2.2,1.9,4.2,2.8,6,2.8c0.6,0,1.1-0.1,1.6-0.3c0.5-0.2,1-0.3,1.5-0.3
				c1.7,0,2.5,0.6,2.5,1.8c0,0.8-0.5,1.6-1.4,2.2c-0.9,0.6-2.2,0.8-3.8,0.6c-2.4,0.1-6.8-2.6-13.1-8.1c-0.5-0.3-1.8-0.6-3.9-0.8
				c-1.7-0.2-2.6-0.7-2.9-1.6l-0.1-0.3V49.4z"/>
			<path class="st1" d="M340.4,55.6c2.1,0,4,0.2,5.5,0.5c1.5,0.6,2.5,1.1,3,1.5c1,1,1.5,2.2,1.5,3.7c0,1.4-0.5,2.6-1.5,3.7
				c-1,1-2.3,1.5-3.7,1.5c-2.4,0-4-1.1-4.8-3.4c-2.6,0.4-4.3,1.2-5.1,2.4c-1.4,2.1-2.1,4.3-1.9,6.8c0.1,2.3,1.5,4.1,4.1,5.6
				c2.4,0.8,4.3,1.4,5.7,1.5c3.6,0.4,6.4-0.4,8.5-2.5l-0.1-27.6h-28.1c-1.6,0-2.4-1.1-2.4-3.2c0-1.8,0.8-2.7,2.5-2.7H369
				c1.2,0,1.8,0.9,1.8,2.8c0,2.1-0.6,3.1-1.8,3.1h-7.5l0.1,37.5c0.1,2,1.3,4,3.5,6c2.2,2,4.2,3,6,3c0.6,0,1.1-0.1,1.6-0.3
				c0.5-0.2,1-0.3,1.5-0.3c1.7,0,2.5,0.6,2.5,1.8c0,0.8-0.5,1.6-1.4,2.2c-1,0.6-2.3,0.8-3.9,0.6c-2.4,0.1-6.7-2.6-13-8.1
				c-0.5-0.3-1.8-0.6-4-0.8c-1.7-0.2-2.6-0.7-2.9-1.5v-2.8v-0.9c-1.5,1.3-4.6,2-9.1,2.1c-5.2,0.1-9.4-1-12.5-3.3
				c-2.2-1.5-3.8-3.5-4.9-5.9c-0.6-1.3-1.1-2.6-1.4-3.9c-0.1-0.4-0.1-1.4-0.2-3c-0.2-3.5,0.5-6.5,2-9.2c1.5-2.7,3.7-4.6,6.4-5.6
				C334,56.1,336.9,55.6,340.4,55.6z"/>
			<path class="st1" d="M371.8,49.4h-4.9c-1.7,0-2.5-1-2.5-2.9c0-1.9,0.8-2.8,2.5-2.9h23c1.7,0,2.5,0.9,2.5,2.7
				c0,2.1-0.8,3.1-2.5,3.1H382v37.5c0.1,2,1.2,3.9,3.3,5.8c2.2,1.9,4.2,2.8,6,2.8c0.6,0,1.1-0.1,1.6-0.3c0.5-0.2,1-0.3,1.5-0.3
				c1.7,0,2.5,0.6,2.5,1.8c0,0.8-0.5,1.6-1.4,2.2c-0.9,0.6-2.2,0.8-3.8,0.6c-2.4,0.1-6.8-2.6-13.1-8.1c-0.5-0.3-1.8-0.6-3.9-0.8
				c-1.7-0.2-2.6-0.7-2.9-1.6l-0.1-0.3V49.4z"/>
			<path class="st1" d="M390,73.2c1-1,2.2-1.4,3.6-1.4c1.5,0,2.7,0.5,3.7,1.5c1,1,1.5,2.2,1.5,3.6c0,1-0.3,2-0.8,2.8
				c2.8,4,5.8,6,9,6c7.7,0,11.7-3.3,11.9-10c0.1-3.6-0.7-6.4-2.4-8.4c-1.5-1.8-4-3.2-7.5-4.2h-5.7c-1.4,0-2.1-1.1-2.1-3.2
				c0-1.9,0.7-2.8,2.1-2.9h33.3v-7.5h-48.7c-1.4,0-2.1-1-2.1-2.9c0-2,0.7-3,2.1-3h65.5c1.3,0,1.9,1,1.9,2.9c0,2-0.6,3-1.9,3h-6.7
				v37.5c0.1,2,1.2,3.9,3.3,5.8c2.2,1.9,4.2,2.8,6,2.8c0.6,0,1.1-0.1,1.6-0.3c0.5-0.2,1-0.3,1.5-0.3c1.7,0,2.5,0.6,2.5,1.8
				c0,0.8-0.5,1.6-1.4,2.2c-0.9,0.6-2.2,0.8-3.8,0.6c-2.4,0.1-6.8-2.6-13.1-8.1c-0.5-0.3-1.8-0.6-3.9-0.8c-1.7-0.2-2.6-0.7-2.9-1.6
				l-0.1-26h-13.6c4.6,3.7,6.9,8.2,6.9,13.5c-0.1,5.4-2.2,9.6-6.3,12.5c-3.6,2.6-8.3,3.9-14.1,3.9c-4.8,0-8.9-1.1-12.5-3.4
				c-4.1-2.5-6.9-6-8.2-10.6C387.9,76.6,388.4,74.7,390,73.2z"/>
		</g>
		<g>
			<path class="st0" d="M16.7,12.8c-0.6,1.4-1.4,2.8-1.9,4.3c-1.7,4.4-1.5,8.9-0.1,13.4c1.7,5.4,4.7,10.2,8,14.7
				c4.7,6.4,9.7,12.6,14.5,19c3.3,4.4,6.1,9.1,7.8,14.4c2.5,7.9,0.9,14.9-4.2,21.2c-1.6,2-3.5,3.8-5.2,5.6c-0.1-0.1-0.2-0.1-0.2-0.2
				c0.9-1.7,1.8-3.3,2.6-5c2.3-5.4,2.5-10.9,0.8-16.4c-2.1-6.9-6-12.7-10.3-18.4c-4.3-5.8-8.7-11.4-13-17.2c-3.1-4.3-5.7-9-6.8-14.2
				c-1.2-5.5-0.2-10.8,3-15.5c1.5-2.1,3.2-4,4.8-6C16.5,12.6,16.6,12.7,16.7,12.8z"/>
			<path class="st1" d="M20.9,118.1c1-2,2.1-3.9,3.1-5.9c3.3-6.6,5.3-13.5,5-21c-0.2-5-1-10-2.9-14.6c-1.6-3.9-3.4-7.7-5.2-11.6
				c-0.1-0.2-0.2-0.5-0.1-0.9c0.9,0.9,1.7,1.8,2.6,2.7c4.3,4.7,8,9.8,10,15.8c1.5,4.2,2,8.6,1.3,13.1c-1,6.3-3.9,11.7-8,16.4
				c-1.5,1.8-3.2,3.5-4.9,5.2c-0.3,0.3-0.6,0.5-0.9,0.8C21,118.2,21,118.2,20.9,118.1z"/>
			<path class="st2" d="M44.6,43.4c0,4.2-3.3,7.4-7.5,7.4c-4.1,0-7.4-3.4-7.4-7.4c0-4.1,3.4-7.6,7.6-7.5
				C41.2,36,44.7,39.2,44.6,43.4z"/>
			<path class="st3" d="M10.6,95c0-3.6,2.7-6,6.3-6.3c3.9-0.3,6.3,3.6,6.5,6.2c0.2,3.2-3.3,6.4-6.6,6.4
				C13.3,101.3,10.6,98.5,10.6,95z"/>
			<path class="st4" d="M31.5,27.1c0,3-2.7,5.7-5.8,5.7c-3,0-5.6-2.7-5.6-5.7c0-3.4,2.5-6,5.9-6C28.7,21.2,31.4,24.2,31.5,27.1z"/>
			<path class="st5" d="M9.1,111.3c0-2.8,2-4.7,4.7-4.7c2.5,0,4.7,2.2,4.8,4.7c0,2.5-2.3,4.7-4.9,4.7C11,116,9.1,114.1,9.1,111.3z"
				/>
			<path class="st6" d="M31.8,12.3c0,2.6-1.9,4.4-4.7,4.4c-2.2,0-3.9-1.9-3.9-4.4c0-2.4,1.8-4.2,4.3-4.2C30,8.1,31.8,9.8,31.8,12.3z
				"/>
			<path class="st7" d="M0.2,119.7c0-1.6,1.6-3.1,3-3c1.5,0.1,3,1.6,3,3.1c0,1.6-1.5,3.1-3.2,3C1.4,122.8,0.1,121.4,0.2,119.7z"/>
			<path class="st8" d="M33.8,4.1c0-1.7,1.1-2.8,2.7-2.8c1.5,0,2.8,1.3,2.9,2.7c0,1.4-1.3,2.8-2.8,2.8C35,6.9,33.8,5.7,33.8,4.1z"/>
		</g>
	</g>
</g>
</svg>
